<svg width="176" height="59" viewBox="0 0 176 59" fill="none" xmlns="http://www.w3.org/2000/svg">
<path d="M18.2684 58.8357C13.5488 59.1192 8.86503 57.8645 4.92929 55.2623C3.37178 54.1016 2.11325 52.591 1.25675 50.8543C0.400249 49.1175 -0.0298689 47.2041 0.0016116 45.2705H8.18386C8.43309 47.0046 9.34389 48.5773 10.7279 49.6633C12.9279 51.1866 15.5963 51.8954 18.2684 51.6662C20.8082 51.8194 23.3347 51.2001 25.5109 49.8909C26.2891 49.4106 26.9297 48.7396 27.3713 47.9424C27.8128 47.1452 28.0404 46.2486 28.0321 45.3388C28.0536 44.5956 27.8914 43.8585 27.5598 43.192C27.2282 42.5254 26.7372 41.9496 26.1298 41.515C24.2273 40.4015 22.0789 39.7685 19.8728 39.6714L15.5639 39.2617C11.8072 39.0266 8.2037 37.6966 5.20432 35.438C3.94151 34.4231 2.93551 33.1288 2.26689 31.6585C1.59826 30.1882 1.28557 28.5829 1.35386 26.9711C1.28412 24.4567 2.04035 21.988 3.50829 19.9381C5.01378 17.922 7.04148 16.3488 9.37566 15.386C12.169 14.2999 15.1555 13.7889 18.1538 13.8839C22.44 13.6926 26.6769 14.8561 30.2553 17.2069C31.7894 18.3141 33.0292 19.7753 33.8678 21.4645C34.7063 23.1537 35.1183 25.0202 35.0684 26.9028H26.8174C26.7638 26.0942 26.5305 25.3074 26.1342 24.5991C25.7379 23.8907 25.1885 23.2783 24.5254 22.8059C22.6573 21.5354 20.413 20.9261 18.1538 21.0762C15.9363 20.9251 13.7301 21.5008 11.8739 22.7149C11.2082 23.1938 10.6675 23.8237 10.2967 24.5522C9.92591 25.2806 9.73586 26.0866 9.74238 26.9028C9.70899 27.5651 9.83022 28.226 10.0966 28.8341C10.363 29.4421 10.7673 29.9807 11.278 30.4079C12.834 31.4498 14.6514 32.0409 16.5265 32.115L20.8125 32.5702C24.8793 32.8056 28.8033 34.1439 32.1576 36.4394C33.5338 37.4571 34.6378 38.7942 35.373 40.3337C36.1082 41.8733 36.4521 43.5683 36.3748 45.2705C36.4113 47.8225 35.6064 50.3163 34.0828 52.3717C32.4503 54.5153 30.2533 56.1693 27.7341 57.1514C24.7214 58.3266 21.5046 58.8989 18.2684 58.8357Z" fill="#014D2F"/>
<path d="M50.9976 6.87365V0.0455219H65.5972V6.87365H50.9976ZM56.6357 57.5839V0H65.5972V57.5839H56.6357Z" fill="#014D2F"/>
<path d="M108.961 58.995C105.561 59.0628 102.182 58.4353 99.0367 57.1514C96.3036 56.0134 93.8433 54.3148 91.8171 52.1669C89.8919 50.1554 88.3814 47.7895 87.3707 45.2022C86.363 42.6342 85.8498 39.9011 85.8581 37.145V35.6656C85.8473 32.8828 86.3765 30.1241 87.4166 27.5401C88.4439 24.909 90.004 22.5153 92.0005 20.5071C94.0764 18.4137 96.5445 16.7436 99.2659 15.5909C105.494 13.1033 112.45 13.1033 118.679 15.5909C121.382 16.7398 123.828 18.411 125.875 20.5071C127.866 22.5201 129.425 24.9125 130.459 27.5401C131.481 30.1286 132.002 32.8853 131.995 35.6656V37.145C131.996 39.9026 131.475 42.6357 130.459 45.2022C129.449 47.7895 127.938 50.1554 126.013 52.1669C123.987 54.3148 121.527 56.0134 118.793 57.1514C115.678 58.428 112.331 59.0555 108.961 58.995ZM108.961 51.2792C111.63 51.3646 114.266 50.6765 116.547 49.2991C118.59 47.989 120.231 46.1466 121.292 43.9732C122.409 41.5884 122.988 38.99 122.988 36.3598C122.988 33.7296 122.409 31.1312 121.292 28.7464C120.201 26.5767 118.528 24.749 116.456 23.466C114.152 22.1966 111.561 21.5304 108.926 21.5304C106.292 21.5304 103.701 22.1966 101.397 23.466C99.307 24.7406 97.6163 26.5694 96.5156 28.7464C95.3984 31.1312 94.8195 33.7296 94.8195 36.3598C94.8195 38.99 95.3984 41.5884 96.5156 43.9732C97.5946 46.1553 99.2604 47.9986 101.329 49.2991C103.629 50.6718 106.278 51.3591 108.961 51.2792Z" fill="#014D2F"/>
<path d="M153.378 1.00146V13.4514H161.881V1.00146H153.378ZM168.78 50.3233C167.846 50.3864 166.909 50.2595 166.026 49.9503C165.144 49.6412 164.334 49.1562 163.646 48.5252C163.025 47.8256 162.55 47.0109 162.247 46.1282C161.944 45.2454 161.82 44.312 161.881 43.3814V21.7817H153.378V42.6986C153.269 45.8432 153.93 48.9672 155.303 51.8027C156.495 54.0056 158.437 55.7159 160.781 56.628C163.617 57.6359 166.617 58.1143 169.628 58.0391H176V50.3006L168.78 50.3233Z" fill="#014D2F"/>
<path d="M153.424 13.4514H140.887V21.8955H153.424V13.4514Z" fill="#F3C722"/>
</svg>
